<svg width="375" height="812" viewBox="0 0 375 812" fill="none" xmlns="http://www.w3.org/2000/svg">
<g clip-path="url(#clip0_701_771)">
<rect width="375" height="812" fill="#75B37E"/>
<path d="M506 644.746C520.081 603.021 522.714 510.325 467.812 473.03C412.909 435.734 315.471 452.013 279 473.03C242.529 494.047 108.5 503 128 435.246C154.56 342.959 166.5 306.746 100 329.246C33.5 351.746 62.4765 291.629 -12 301.746C-71.5812 309.839 -132 398.746 -183 294.746" stroke="#A0F4BA"/>
<path d="M20.118 60.1502C36.3349 83.0634 16.9802 102.828 2.69825 103.553C-48.6615 105.599 -36.4129 85.8455 -31.8172 53.6139C-27.2215 21.3822 3.90112 37.2371 20.118 60.1502Z" stroke="#F4A0A0"/>
<path d="M-37.7263 261.058C-23.5847 257.221 -2.47494 244.554 -31.1683 224.576C-67.0349 199.605 -138.815 148.085 2.96232 139.16C144.739 130.235 254.936 138.021 237.032 152.355C219.128 166.69 102.885 161.055 133.813 122.275C164.74 83.4959 353.345 57.0151 500.596 78.2993" stroke="#FFFD91"/>
<path d="M44.9475 467.922C41.8327 471.037 36.6005 470.855 36.6005 470.855C36.6005 470.855 36.4184 465.623 39.5332 462.508C42.648 459.393 47.8802 459.575 47.8802 459.575C47.8802 459.575 48.0623 464.807 44.9475 467.922Z" fill="#FFF1CE"/>
<circle cx="96" cy="349" r="4" fill="#FFF1CE"/>
<circle cx="254" cy="359" r="4" fill="#FFF1CE"/>
<circle cx="341" cy="325" r="4" fill="#FFF1CE"/>
<circle cx="268.5" cy="166.5" r="3.5" fill="#FFF1CE"/>
<circle cx="91.5" cy="267.5" r="3.5" fill="#FFF1CE"/>
<circle cx="193" cy="208" r="3" fill="#FFF1CE"/>
<path d="M297.322 346.432C298.236 350.542 301.159 354.104 304.903 356.205C308.466 358.215 312.302 358.58 316.321 358.397C316.504 358.397 316.686 358.397 316.778 358.397C316.778 358.215 316.778 358.032 316.778 357.849C316.412 352.552 314.586 347.345 311.663 342.961C308.74 338.759 304.812 335.288 300.976 332C298.053 336.202 296.226 341.773 297.322 346.432Z" fill="#AEDC90"/>
<path d="M297.322 346.432C298.236 350.542 301.159 354.104 304.903 356.205C308.466 358.215 312.302 358.58 316.321 358.397C316.504 358.397 316.686 358.397 316.778 358.397C299.24 348.624 300.885 332 300.885 332C298.053 336.202 296.226 341.773 297.322 346.432Z" fill="#7CA661"/>
<path d="M301.707 340.403C302.529 344.514 304.995 348.533 307.644 351.638C310.018 354.378 312.941 356.845 316.23 358.489C316.412 358.489 316.595 358.489 316.686 358.489C316.686 358.306 316.686 358.123 316.686 357.941C313.398 356.114 310.475 354.013 308.009 351.09C306.639 349.446 305.451 347.71 304.447 345.792C303.533 344.057 302.894 342.139 302.255 340.312C302.163 339.855 301.615 340.038 301.707 340.403Z" fill="#39700B"/>
<path d="M131.796 244.748C137 242.597 141.788 238.85 144.98 235.173C151.433 227.679 152.474 216.646 150.322 207.001C149.212 201.935 147.269 196.939 144.147 192.776C136.237 181.951 122.498 175.984 109.175 175.082C100.918 174.527 91.8972 176.817 84.9583 181.257C73.648 188.613 68.5826 204.295 74.4806 217.409C79.8929 229.413 88.7053 227.193 98.4197 232.536C106.399 236.907 111.187 245.789 121.179 246.691C124.718 246.969 128.396 246.205 131.796 244.748Z" fill="#F4F4F4"/>
<path d="M74.5501 217.34C79.9625 229.344 88.7748 227.123 98.4892 232.466C106.469 236.838 111.257 245.72 121.249 246.622C124.718 246.899 128.326 246.136 131.796 244.679C133.877 243.846 135.82 242.736 137.694 241.487C114.449 240.307 87.3871 222.405 82.6686 207.764C79.338 197.356 83.2237 186.878 87.1095 179.87C86.3462 180.286 85.6523 180.702 84.9584 181.119C73.7175 188.543 68.6521 204.225 74.5501 217.34Z" fill="#E3E3E3"/>
<path d="M126.938 229.899C135.408 229.899 142.273 223.033 142.273 214.564C142.273 206.095 135.408 199.229 126.938 199.229C118.469 199.229 111.604 206.095 111.604 214.564C111.604 223.033 118.469 229.899 126.938 229.899Z" fill="#EBB64A"/>
<path d="M130.894 226.846C122.428 226.846 115.559 219.976 115.559 211.511C115.559 207.486 117.155 203.809 119.722 201.033C114.934 203.601 111.604 208.666 111.604 214.564C111.604 223.029 118.473 229.899 126.938 229.899C131.379 229.899 135.334 228.025 138.11 225.042C135.959 226.221 133.461 226.846 130.894 226.846Z" fill="#E3A63B"/>
<path d="M138.387 215.535C136.306 217.131 136.583 212.343 133.877 208.874C131.171 205.404 126.453 204.502 128.534 202.906C130.616 201.31 134.502 202.768 137.208 206.237C139.983 209.776 140.469 213.87 138.387 215.535Z" fill="white"/>
<path d="M263.085 180.791C259.807 179.611 256.135 179.742 252.923 181.25C246.105 184.528 234.566 190.822 233.123 197.181C231.091 206.36 254.496 217.964 277.443 237.239C300.389 256.514 302.881 264.25 307.011 257.628C311.141 251.007 327.532 233.633 314.55 213.243C304.323 197.115 275.017 185.118 263.085 180.791Z" fill="#ECB579"/>
<path d="M307.011 257.628C309.305 253.957 315.468 246.876 318.156 237.829C314.55 241.304 310.027 244.188 304.716 242.68C292.194 239.14 268.002 209.179 249.907 197.902C244.007 194.165 239.221 192.919 235.549 192.919C234.369 194.362 233.517 195.804 233.189 197.246C231.157 206.425 254.562 218.029 277.508 237.304C300.324 256.514 302.88 264.25 307.011 257.628Z" fill="#DFA164"/>
<path d="M261.643 221.307C264.134 220.586 266.822 220.586 269.445 220.52C270.1 220.52 270.756 220.52 271.411 220.52C282.032 220.258 290.686 216.914 295.866 211.014C296.98 209.703 297.964 208.326 298.947 206.949C299.34 206.359 299.734 205.769 300.193 205.179C301.111 203.868 302.16 202.622 303.209 201.376C302.75 201.049 302.291 200.721 301.832 200.393C300.783 201.639 299.799 202.884 298.816 204.196C298.423 204.786 297.964 205.376 297.57 205.966C296.652 207.277 295.669 208.654 294.62 209.899C289.769 215.472 281.508 218.619 271.411 218.881C270.756 218.881 270.166 218.881 269.51 218.881C266.757 218.881 264.003 218.947 261.249 219.734C259.741 220.193 258.365 220.783 257.053 221.569C257.578 221.897 258.037 222.291 258.561 222.618C259.479 222.094 260.528 221.635 261.643 221.307Z" fill="#F2D0A4"/>
<path d="M249.383 206.032C250.563 206.359 251.743 206.622 252.857 206.95C258.561 208.392 265.249 209.572 271.542 207.474C276.263 205.901 280.196 202.688 283.737 199.344C285.966 197.312 288.064 195.149 290.162 193.051C289.637 192.788 289.178 192.46 288.654 192.198C286.687 194.231 284.655 196.197 282.622 198.099C279.213 201.246 275.476 204.393 271.018 205.835C265.183 207.736 258.758 206.622 253.251 205.245C252.071 204.983 250.956 204.655 249.776 204.327C244.99 203.081 240.007 201.77 234.959 201.77C234.631 201.77 234.304 201.77 233.976 201.77C234.304 202.295 234.631 202.885 235.025 203.409C239.876 203.54 244.728 204.786 249.383 206.032Z" fill="#F2D0A4"/>
<path d="M252.726 215.079C257.25 213.636 262.036 213.702 265.773 213.899C266.101 213.899 266.429 213.964 266.822 213.964C269.313 214.095 271.87 214.226 274.427 213.702C277.64 212.981 280.393 211.145 282.95 209.375C286.949 206.556 291.08 203.409 294.161 199.147C294.817 198.23 295.341 197.377 295.866 196.394C295.407 196.066 294.948 195.804 294.423 195.542C293.964 196.459 293.44 197.312 292.784 198.164C289.899 202.229 285.9 205.31 281.967 207.998C279.541 209.703 276.918 211.407 273.968 212.063C271.673 212.587 269.182 212.456 266.822 212.325C266.494 212.325 266.166 212.26 265.773 212.26C261.905 212.063 256.857 211.997 252.136 213.505C250.694 213.964 249.383 214.554 248.137 215.21C248.596 215.603 249.12 215.931 249.645 216.324C250.628 215.8 251.677 215.407 252.726 215.079Z" fill="#F2D0A4"/>
<path d="M268.133 193.313C265.052 194.69 261.184 194.69 256.332 193.313C251.546 191.936 247.023 189.707 243.023 186.757C242.499 187.085 242.04 187.412 241.515 187.74C245.777 190.953 250.694 193.444 255.873 194.952C261.118 196.46 265.38 196.46 268.854 194.886C272.591 193.182 275.017 189.969 277.115 186.494C276.591 186.232 276.066 186.036 275.542 185.839C273.509 188.986 271.411 191.87 268.133 193.313Z" fill="#F2D0A4"/>
<path d="M246.76 184.462C250.694 186.625 255.087 188.527 259.741 188.986C261.839 189.182 263.609 189.051 265.117 188.461C267.346 187.674 269.248 185.97 270.625 183.675C270.1 183.478 269.576 183.216 269.051 183.02C267.871 184.855 266.363 186.232 264.593 186.822C263.347 187.281 261.839 187.412 259.938 187.215C255.939 186.822 252.071 185.249 248.53 183.413C247.94 183.806 247.35 184.134 246.76 184.462Z" fill="#F2D0A4"/>
<path d="M273.509 198.033C266.822 202.491 257.775 203.081 250.563 199.541C248.858 198.689 247.154 197.64 245.58 196.591C242.695 194.755 239.745 192.788 236.27 192.067C235.812 192.526 235.353 193.05 234.959 193.575C235.287 193.641 235.549 193.641 235.877 193.706C239.024 194.362 241.778 196.132 244.662 197.968C246.301 199.017 248.071 200.131 249.842 201.049C257.578 204.851 267.281 204.196 274.427 199.41C278.164 196.919 281.18 193.378 283.081 189.313C282.557 189.051 282.098 188.855 281.573 188.592C279.803 192.395 277.05 195.673 273.509 198.033Z" fill="#F2D0A4"/>
<path d="M300.061 253.629C302.094 247.335 303.995 241.435 308.322 236.845C309.502 235.6 310.879 234.485 312.19 233.371C312.715 232.912 313.239 232.453 313.829 231.994C315.796 230.289 317.632 228.454 319.402 226.552C319.336 225.831 319.205 225.11 319.074 224.323C317.173 226.618 315.009 228.781 312.715 230.748C312.19 231.207 311.666 231.666 311.141 232.059C309.764 233.174 308.322 234.354 307.076 235.665C302.487 240.517 300.455 246.876 298.422 253.105C298.16 253.957 297.898 254.809 297.57 255.662C298.029 256.12 298.488 256.514 298.947 256.907C299.34 255.793 299.668 254.744 300.061 253.629Z" fill="#F2D0A4"/>
<path d="M308.453 255.464C308.847 254.874 309.306 254.284 309.765 253.629C309.502 252.055 309.371 250.416 309.633 248.843C310.092 245.696 311.731 242.746 313.436 240.058C315.206 237.238 317.173 234.485 319.271 231.928C319.336 231.01 319.402 230.092 319.402 229.109C316.714 232.321 314.223 235.665 311.994 239.14C310.158 242.024 308.388 245.106 307.929 248.581C307.667 250.941 307.929 253.235 308.453 255.464Z" fill="#F2D0A4"/>
<path d="M294.489 244.254C296.915 240.91 299.865 237.96 302.75 235.075C304.848 232.912 307.077 230.748 309.044 228.388C312.19 224.651 314.682 220.717 316.452 216.587C316.124 215.931 315.796 215.341 315.403 214.686C313.698 219.013 311.076 223.34 307.732 227.273C305.765 229.568 303.602 231.797 301.504 233.895C298.619 236.845 295.603 239.861 293.112 243.27C291.866 244.975 290.817 246.745 290.031 248.45C290.49 248.843 290.883 249.302 291.342 249.695C292.129 247.86 293.178 246.024 294.489 244.254Z" fill="#F2D0A4"/>
<path d="M284.065 227.405C284.851 227.011 285.704 226.618 286.49 226.159C291.014 223.93 295.669 221.635 299.537 218.292C303.274 215.079 306.355 210.883 308.519 206.032C308.126 205.638 307.667 205.245 307.208 204.852C305.11 209.703 302.159 213.833 298.422 217.046C294.685 220.258 290.096 222.488 285.704 224.717C284.917 225.11 284.065 225.503 283.278 225.962C279.41 227.929 275.476 230.158 272.198 233.108C272.657 233.436 273.05 233.83 273.509 234.157C276.656 231.404 280.393 229.306 284.065 227.405Z" fill="#F2D0A4"/>
<path d="M281.901 240.976C284.786 238.288 288.129 235.993 291.342 233.829C294.686 231.535 298.16 229.175 301.176 226.355C305.962 221.897 309.502 216.325 312.912 210.949C312.584 210.49 312.19 210.031 311.797 209.572C308.388 215.013 304.782 220.717 300.062 225.175C297.111 227.929 293.702 230.289 290.424 232.518C287.146 234.747 283.737 237.042 280.787 239.861C280.721 239.927 280.655 239.992 280.59 240.058C280.983 240.32 281.442 240.713 281.901 240.976C281.836 241.041 281.836 241.041 281.901 240.976Z" fill="#F2D0A4"/>
<path d="M296.581 445.033C295.394 445.307 294.206 446.586 293.476 447.225C292.106 448.413 290.644 449.326 289 450.148C289.548 450.97 290.827 451.427 291.74 451.609C292.745 451.792 293.658 451.609 294.663 451.427C295.12 451.335 295.577 451.153 296.033 450.97C297.403 450.148 299.778 446.768 298.043 445.398C297.586 445.033 297.038 444.942 296.581 445.033Z" fill="#7CA661"/>
<path d="M177.658 165.928C176.654 165.014 176.197 163.37 175.74 162C175.009 162.731 174.096 163.187 173 163.279C173.457 165.288 174.644 167.115 176.471 168.028C176.562 167.389 177.11 166.384 177.658 165.928Z" fill="#AEDC90"/>
<path d="M183.129 321.466L180.754 319C180.754 319 180.389 324.937 175 327.129L177.192 328.773C177.192 328.773 181.759 326.947 183.129 321.466Z" fill="#AEDC90"/>
<path d="M43.9352 388C42.3824 388.913 40.921 389.735 39.3682 390.649C38.4548 391.197 37.5414 391.654 36.902 392.476C36.1713 393.298 35.4406 394.759 36.628 395.49C37.8154 396.221 40.0076 395.033 41.0123 394.394C42.0171 393.754 43.0218 393.024 43.6612 391.928C44.94 389.918 43.7525 388.091 43.9352 388Z" fill="#7CA661"/>
<path d="M51.1511 245.855C51.6078 248.139 53.252 249.966 55.2614 251.153C57.1796 252.249 59.2804 252.432 61.4726 252.34C61.5639 252.34 61.6552 252.34 61.7466 252.34C61.7466 252.249 61.7466 252.158 61.7466 252.066C61.5639 249.144 60.5592 246.403 58.9151 243.937C57.3623 241.654 55.2614 239.827 53.1606 238C51.6078 240.284 50.6031 243.298 51.1511 245.855Z" fill="#AEDC90"/>
<path d="M51.1511 245.855C51.6078 248.139 53.252 249.966 55.2614 251.153C57.1796 252.249 59.2804 252.432 61.4726 252.34C61.5639 252.34 61.6552 252.34 61.7466 252.34C52.2472 247.043 53.1606 238 53.1606 238C51.6078 240.284 50.6031 243.298 51.1511 245.855Z" fill="#7CA661"/>
<path d="M53.5257 242.567C53.9824 244.759 55.2612 246.951 56.7226 248.595C58.0014 250.057 59.5542 251.427 61.381 252.34C61.4723 252.34 61.5637 252.34 61.655 252.34C61.655 252.249 61.655 252.158 61.655 252.066C59.9196 251.062 58.2754 249.965 56.9967 248.321C56.2659 247.408 55.6266 246.495 55.0785 245.49C54.5305 244.485 54.2565 243.48 53.8911 242.476C53.7998 242.293 53.5257 242.384 53.5257 242.567Z" fill="#39700B"/>
<path d="M347.595 212.855C347.139 215.139 345.495 216.966 343.485 218.153C341.567 219.249 339.466 219.432 337.274 219.34C337.183 219.34 337.091 219.34 337 219.34C337 219.249 337 219.158 337 219.066C337.183 216.144 338.187 213.403 339.832 210.937C341.384 208.654 343.485 206.827 345.586 205C347.139 207.284 348.143 210.298 347.595 212.855Z" fill="#AEDC90"/>
<path d="M347.595 212.855C347.139 215.139 345.495 216.966 343.485 218.153C341.567 219.249 339.466 219.432 337.274 219.34C337.183 219.34 337.091 219.34 337 219.34C346.499 214.043 345.586 205 345.586 205C347.139 207.284 348.143 210.298 347.595 212.855Z" fill="#7CA661"/>
<path d="M345.221 209.567C344.764 211.759 343.485 213.951 342.024 215.595C340.745 217.057 339.192 218.427 337.366 219.34C337.274 219.34 337.183 219.34 337.092 219.34C337.092 219.249 337.092 219.158 337.092 219.066C338.827 218.062 340.471 216.965 341.75 215.321C342.481 214.408 343.12 213.495 343.668 212.49C344.216 211.485 344.49 210.48 344.855 209.476C344.947 209.293 345.221 209.384 345.221 209.567Z" fill="#39700B"/>
<path d="M239.913 341.65C242.383 338.485 246.937 337.945 250.101 340.415C252.88 342.576 253.652 346.358 252.108 349.369L265.539 354L276.19 311.316C274.724 311.316 273.18 310.852 271.868 309.849C268.858 307.456 268.317 303.134 270.633 300.046C272.717 297.345 276.499 296.65 279.432 298.194L285.067 275.578L267.237 264L256.045 272.182C256.739 274.42 256.431 276.967 254.887 278.897C252.494 281.985 248.017 282.602 244.852 280.286L215.29 301.822C215.907 302.053 216.525 302.362 217.065 302.748C219.535 304.678 219.998 308.305 218.069 310.852C216.139 313.322 212.511 313.786 209.964 311.856C208.497 310.698 207.726 309 207.726 307.302L198 314.403L221.31 338.64L238.369 344.506C238.755 343.58 239.218 342.576 239.913 341.65Z" fill="#EBB64A"/>
<path d="M267.391 264.077L256.199 272.259C256.894 274.497 256.585 277.045 255.041 278.974C252.648 282.062 248.171 282.679 245.007 280.364L215.444 301.899C216.062 302.13 216.679 302.439 217.219 302.825C219.689 304.755 220.153 308.382 218.223 310.93C216.293 313.4 212.665 313.863 210.118 311.933C208.652 310.775 207.88 309.077 207.88 307.379L198.154 314.48L221.465 338.717L285.221 275.578L267.391 264.077Z" fill="#EEC94D"/>
<path d="M243.463 303.751C241.842 305.835 238.909 306.144 236.825 304.6C234.741 302.979 234.432 300.046 235.976 297.962C237.597 295.878 240.53 295.569 242.614 297.113C244.698 298.734 245.084 301.744 243.463 303.751Z" fill="#EBB64A"/>
<path d="M274.415 278.974C273.412 280.287 271.482 280.518 270.17 279.515C268.858 278.511 268.626 276.582 269.63 275.269C270.633 273.957 272.563 273.726 273.875 274.729C275.187 275.733 275.419 277.662 274.415 278.974Z" fill="#EBB64A"/>
<path d="M230.573 324.823C228.798 327.062 225.556 327.448 223.317 325.749C221.079 323.974 220.693 320.732 222.391 318.494C224.166 316.255 227.408 315.87 229.647 317.568C231.962 319.343 232.348 322.585 230.573 324.823Z" fill="#EBB64A"/>
<path d="M263.377 330.844C261.911 332.773 259.132 333.082 257.202 331.616C255.273 330.149 254.964 327.37 256.431 325.441C257.897 323.511 260.676 323.202 262.606 324.669C264.535 326.135 264.844 328.914 263.377 330.844Z" fill="#CC9431"/>
<path d="M261.663 453.964C261.663 453.964 242.855 479.81 237.588 481.143C232.321 482.477 226.547 475.132 222.536 483.531C218.441 491.952 232.522 493.457 232.522 493.457C232.522 493.457 231.757 503.436 239.082 504.961C246.407 506.487 244.959 497.958 244.79 490.262C244.536 482.586 272.752 461.92 272.752 461.92L261.663 453.964Z" fill="#F2D0A4"/>
<path d="M334.254 417.08C340.502 394.326 315.909 374.845 295.195 386.139C294.882 386.307 294.652 386.454 294.339 386.622C278.555 395.957 255.24 453.189 257.323 457.198C260.647 463.651 265.889 454.14 264.612 460.69C263.335 467.241 261.363 472.099 275.627 465.196C289.975 458.271 329.677 432.028 334.005 417.855C334.109 417.562 334.213 417.269 334.254 417.08Z" fill="#C89059"/>
<path d="M288.205 412.283C300.341 393.464 311.784 387.009 318.094 384.877C311.141 382.012 302.942 381.953 295.195 386.139C294.882 386.307 294.652 386.454 294.339 386.622C278.555 395.957 255.24 453.189 257.323 457.198C260.647 463.651 265.889 454.14 264.612 460.69C263.335 467.241 261.362 472.099 275.627 465.195C277.757 464.122 280.492 462.629 283.603 460.863C279.874 451.755 274.985 432.799 288.205 412.283Z" fill="#BA7F4A"/>
<path d="M297.666 414.869C296.957 415.582 295.723 415.628 295.01 414.919C294.297 414.21 294.251 412.976 294.96 412.263C295.669 411.549 296.903 411.504 297.616 412.213C298.33 412.922 298.375 414.156 297.666 414.869Z" fill="#BA7F4A"/>
<path d="M292.66 426.367C291.805 427.206 290.488 427.273 289.565 426.439C288.726 425.584 288.659 424.266 289.493 423.344C290.348 422.504 291.665 422.438 292.588 423.271C293.511 424.105 293.494 425.444 292.66 426.367Z" fill="#BA7F4A"/>
<path d="M289.916 438.715C289.061 439.555 287.743 439.621 286.82 438.787C285.981 437.932 285.915 436.615 286.748 435.692C287.603 434.853 288.921 434.786 289.844 435.62C290.766 436.454 290.666 437.814 289.916 438.715Z" fill="#BA7F4A"/>
<path d="M298.557 432.791C297.931 433.483 296.865 433.486 296.256 432.84C295.564 432.214 295.561 431.148 296.208 430.539C296.833 429.847 297.9 429.844 298.508 430.49C299.2 431.116 299.182 432.099 298.557 432.791Z" fill="#BA7F4A"/>
<path d="M306.49 407.208C305.865 407.9 304.798 407.904 304.19 407.257C303.498 406.632 303.494 405.565 304.141 404.957C304.766 404.264 305.833 404.261 306.441 404.908C307.134 405.533 307.137 406.6 306.49 407.208Z" fill="#BA7F4A"/>
<path d="M119.9 473.8C133.1 473.8 143.8 463.1 143.8 449.9C143.8 436.7 133.1 426 119.9 426C106.7 426 96 436.7 96 449.9C96 463.1 106.7 473.8 119.9 473.8Z" fill="#EBB64A"/>
<path d="M119.9 471.468C131.812 471.468 141.468 461.812 141.468 449.9C141.468 437.988 131.812 428.332 119.9 428.332C107.988 428.332 98.3318 437.988 98.3318 449.9C98.3318 461.812 107.988 471.468 119.9 471.468Z" fill="white"/>
<path d="M100.664 449.252H115.237C116.338 449.252 116.921 447.892 116.143 447.115L105.845 436.752C105.327 436.234 104.42 436.298 103.967 436.817C101.441 439.861 99.8215 443.682 99.4329 447.827C99.3681 448.605 99.9511 449.252 100.664 449.252Z" fill="#EEC94D"/>
<path d="M115.301 450.483H100.663C99.8863 450.483 99.3033 451.131 99.4329 451.908C99.8215 456.053 101.505 459.875 103.967 462.919C104.42 463.502 105.327 463.566 105.845 462.983L116.143 452.685C116.985 451.843 116.403 450.483 115.301 450.483Z" fill="#EEC94D"/>
<path d="M117.827 429.433C113.682 429.821 109.861 431.505 106.817 433.967C106.234 434.42 106.169 435.327 106.752 435.845L117.05 446.143C117.827 446.92 119.188 446.402 119.188 445.236V430.663C119.252 429.951 118.605 429.368 117.827 429.433Z" fill="#EEC94D"/>
<path d="M122.685 446.208L132.983 435.91C133.502 435.392 133.437 434.485 132.919 434.031C129.874 431.505 126.053 429.886 121.908 429.498C121.131 429.433 120.483 430.016 120.483 430.728V445.301C120.483 446.402 121.843 446.985 122.685 446.208Z" fill="#EEC94D"/>
<path d="M124.434 449.252H139.007C139.784 449.252 140.367 448.605 140.238 447.827C139.849 443.682 138.165 439.861 135.704 436.817C135.25 436.234 134.344 436.169 133.825 436.752L123.527 447.05C122.75 447.892 123.333 449.252 124.434 449.252Z" fill="#EEC94D"/>
<path d="M139.072 450.483H124.499C123.398 450.483 122.815 451.843 123.592 452.62L133.89 462.919C134.409 463.437 135.315 463.372 135.769 462.854C138.295 459.81 139.914 455.988 140.303 451.843C140.367 451.131 139.784 450.483 139.072 450.483Z" fill="#EEC94D"/>
<path d="M117.115 453.527L106.816 463.825C106.298 464.343 106.363 465.25 106.881 465.704C109.925 468.23 113.747 469.849 117.892 470.237C118.669 470.302 119.317 469.719 119.317 469.007V454.434C119.252 453.333 117.892 452.75 117.115 453.527Z" fill="#EEC94D"/>
<path d="M122.685 453.527C121.908 452.75 120.548 453.268 120.548 454.434V469.007C120.548 469.784 121.196 470.367 121.973 470.237C126.118 469.849 129.939 468.165 132.984 465.703C133.567 465.25 133.631 464.343 133.048 463.825L122.685 453.527Z" fill="#EEC94D"/>
<path d="M111.123 320.239C111.123 320.239 114.201 321.383 115.959 319.238C117.718 317.093 120.356 311.016 126.292 309.014C127.831 308.514 129.15 308.085 130.322 307.727C132.887 306.941 134.939 305.01 135.819 302.508C136.771 299.934 138.823 296.645 143.293 294.643C151.427 291.069 151.281 288.066 152.233 285.492C153.186 282.918 159.561 290.783 158.169 301.15C156.777 311.516 146.591 318.451 146.591 318.451C146.591 318.451 142.267 323.885 132.741 326.53C123.288 329.176 118.964 323.671 117.279 322.813C115.666 321.955 112.662 324.457 111.196 323.17C109.877 321.955 111.123 320.239 111.123 320.239Z" fill="#D4E86D"/>
<path d="M158.169 301.221C159.562 290.854 153.186 282.918 152.234 285.563C151.647 287.208 151.501 288.995 149.376 290.997C150.548 292.928 151.721 296.002 151.574 300.721C151.281 310.158 142.341 308.943 139.483 312.088C136.625 315.234 137.138 322.741 127.391 323.456C121.602 323.885 118.231 321.097 116.473 318.594C116.253 318.88 116.106 319.095 115.96 319.309C114.201 321.454 111.123 320.31 111.123 320.31C111.123 320.31 109.877 321.955 111.27 323.242C112.662 324.529 115.666 322.026 117.352 322.884C118.964 323.742 123.288 329.247 132.814 326.602C142.267 323.957 146.664 318.523 146.664 318.523C146.664 318.523 156.704 311.588 158.169 301.221Z" fill="#B5CD5A"/>
<path d="M246.055 263C243.315 263 243.315 267.293 246.055 267.293C248.795 267.202 248.795 263 246.055 263Z" fill="#FFF1CE"/>
<path d="M196.016 412.011H195.925C195.377 412.103 194.92 412.742 195.012 413.29C195.012 413.838 195.377 414.478 195.925 414.569H196.016C196.839 414.752 197.661 414.204 197.661 413.29C197.661 412.377 196.839 411.92 196.016 412.011Z" fill="#FFF1CE"/>
<path d="M170.85 249C168.383 249 168.383 252.836 170.85 252.836C173.316 252.836 173.316 249 170.85 249Z" fill="#FFF1CE"/>
<path d="M104.364 346.675C104.364 346.675 107.515 347.533 109.054 345.245C110.593 342.957 112.718 336.666 118.434 334.163C119.9 333.52 121.219 332.948 122.318 332.519C124.809 331.446 126.715 329.373 127.374 326.871C128.034 324.225 129.793 320.794 134.043 318.434C141.884 314.144 141.371 311.213 142.104 308.568C142.836 305.922 149.871 313.215 149.432 323.653C148.992 334.092 139.466 341.885 139.466 341.885C139.466 341.885 135.655 347.676 126.422 351.108C117.188 354.539 112.425 349.463 110.74 348.748C109.054 348.033 106.269 350.75 104.731 349.606C103.338 348.462 104.364 346.675 104.364 346.675Z" fill="#D4E86D"/>
<path d="M149.505 323.653C149.945 313.215 142.837 305.851 142.177 308.568C141.737 310.284 141.737 312.071 139.832 314.287C141.224 316.075 142.617 319.077 142.91 323.796C143.423 333.234 134.483 332.805 131.918 336.165C129.353 339.525 130.525 346.961 120.926 348.534C115.136 349.463 111.619 346.961 109.64 344.601C109.494 344.887 109.347 345.173 109.201 345.388C107.662 347.676 104.511 346.818 104.511 346.818C104.511 346.818 103.485 348.605 104.95 349.749C106.489 350.893 109.274 348.176 110.959 348.891C112.645 349.606 117.481 354.682 126.642 351.25C135.875 347.819 139.685 342.028 139.685 342.028C139.685 342.028 149.065 334.092 149.505 323.653Z" fill="#B5CD5A"/>
</g>
<defs>
<clipPath id="clip0_701_771">
<rect width="375" height="812" fill="white"/>
</clipPath>
</defs>
</svg>
